<svg width="70" height="20" viewBox="0 0 70 20" fill="none" xmlns="http://www.w3.org/2000/svg">
<path d="M0 10C0 4.47715 4.47715 0 10 0H67C68.6569 0 70 1.34315 70 3V17C70 18.6569 68.6569 20 67 20H10C4.47715 20 0 15.5228 0 10V10Z" fill="#FAF7EE"/>
<path d="M0 3C0 1.34315 1.34315 0 3 0H20V20H3C1.34315 20 0 18.6569 0 17V3Z" fill="#171512"/>
<path d="M15.5009 10.0663C15.1596 11.1542 15.3899 12.4028 14.0137 13.8513C13.0045 14.9135 11.2838 15.1603 9.99748 16.4854C8.71116 15.1603 6.99161 14.9135 5.98243 13.8513C4.60621 12.4028 4.83651 11.1542 4.49524 10.0663C2.75022 6.24588 4.43863 3.47936 4.5996 3.51474C4.6848 3.53346 5.31549 4.26961 5.975 5.02589C6.84711 6.02597 7.15517 6.77499 8.52635 7.90455C9.11023 8.38554 9.99862 8.46143 9.99862 8.46143C9.99862 8.46143 10.8859 8.38554 11.4697 7.90455C12.8409 6.77499 13.149 6.02597 14.0211 5.02589C14.6806 4.26961 15.3113 3.53346 15.3965 3.51474C15.5575 3.47936 17.2459 6.24588 15.5009 10.0663Z" fill="#F3211B"/>
<path d="M10.9659 13.7857C10.943 12.9129 11.3041 11.7618 12.4397 11.174C12.9625 11.1153 13.988 11.3442 13.9065 12.7295C13.0871 13.8873 11.9163 14.0294 10.9659 13.7857Z" fill="#0F0D0E"/>
<path d="M12.4397 11.174C12.9907 10.8888 13.7241 10.7362 14.6846 10.8124C14.5058 11.6408 14.2343 12.2664 13.9065 12.7295C13.988 11.3442 12.9625 11.1153 12.4397 11.174Z" fill="#FAF1D7"/>
<path d="M9.03024 13.7857C9.05311 12.9129 8.69202 11.7618 7.55644 11.174C7.03355 11.1153 6.00812 11.3442 6.08955 12.7295C6.90898 13.8873 8.07981 14.0294 9.03024 13.7857Z" fill="#0F0D0E"/>
<path d="M7.55644 11.174C7.00539 10.8888 6.27196 10.7362 5.31153 10.8124C5.49026 11.6408 5.7618 12.2664 6.08955 12.7295C6.00812 11.3442 7.03355 11.1153 7.55644 11.174Z" fill="#FAF1D7"/>
<path d="M31.7783 13.3071C31.7783 13.8729 31.6978 14.3491 31.5366 14.7358C31.3755 15.1226 31.1499 15.4251 30.8599 15.6436C30.5698 15.8656 30.2189 16.0249 29.8071 16.1216C29.3989 16.2218 28.937 16.272 28.4214 16.272C28.0024 16.272 27.5889 16.2469 27.1807 16.1968C26.776 16.1466 26.4251 16.0858 26.1279 16.0142V14.5049H26.3643C26.6006 14.598 26.8888 14.6821 27.229 14.7573C27.5692 14.8361 27.8735 14.8755 28.1421 14.8755C28.5002 14.8755 28.7902 14.8415 29.0122 14.7734C29.2378 14.709 29.4097 14.6159 29.5278 14.4941C29.6388 14.3796 29.7194 14.2327 29.7695 14.0537C29.8197 13.8747 29.8447 13.6598 29.8447 13.4092V13.2964C29.612 13.4862 29.3542 13.6366 29.0713 13.7476C28.7884 13.8586 28.4733 13.9141 28.126 13.9141C27.2809 13.9141 26.6292 13.6598 26.1709 13.1514C25.7126 12.6429 25.4834 11.8695 25.4834 10.8311C25.4834 10.3333 25.5532 9.90365 25.6929 9.54199C25.8325 9.18034 26.0295 8.86523 26.2837 8.59668C26.52 8.34603 26.8101 8.15088 27.1538 8.01123C27.5011 7.87158 27.8556 7.80176 28.2173 7.80176C28.5431 7.80176 28.8385 7.84115 29.1035 7.91992C29.3721 7.99512 29.6156 8.10075 29.834 8.23682L29.9038 7.96826H31.7783V13.3071ZM29.8447 12.0986V9.36475C29.7337 9.3182 29.5977 9.28239 29.4365 9.25732C29.2754 9.22868 29.1304 9.21436 29.0015 9.21436C28.493 9.21436 28.1117 9.36117 27.8574 9.65479C27.6032 9.94482 27.4761 10.3512 27.4761 10.874C27.4761 11.4541 27.5835 11.8587 27.7983 12.0879C28.0168 12.3171 28.339 12.4316 28.7651 12.4316C28.9585 12.4316 29.1483 12.4012 29.3345 12.3403C29.5207 12.2795 29.6908 12.1989 29.8447 12.0986ZM35.5381 14H33.6045V7.96826H35.5381V14ZM35.5918 7.10889H33.5508V5.64258H35.5918V7.10889ZM41.2207 13.9463C41.013 14 40.7928 14.0412 40.5601 14.0698C40.3273 14.1021 40.0426 14.1182 39.7061 14.1182C38.9541 14.1182 38.3937 13.966 38.0249 13.6616C37.6597 13.3573 37.4771 12.8363 37.4771 12.0986V9.27881H36.6821V7.96826H37.4771V6.24414H39.4106V7.96826H41.2207V9.27881H39.4106V11.4165C39.4106 11.6278 39.4124 11.8122 39.416 11.9697C39.4196 12.1273 39.4482 12.2687 39.502 12.394C39.5521 12.5194 39.6398 12.6196 39.7651 12.6948C39.894 12.7664 40.0802 12.8022 40.3237 12.8022C40.424 12.8022 40.5547 12.7808 40.7158 12.7378C40.8805 12.6948 40.9951 12.6554 41.0596 12.6196H41.2207V13.9463ZM48.4395 14H46.4951V11.0083C46.4951 10.7648 46.4826 10.5231 46.4575 10.2832C46.4325 10.0397 46.3895 9.86068 46.3286 9.74609C46.257 9.61361 46.1514 9.51693 46.0117 9.45605C45.8757 9.39518 45.6841 9.36475 45.437 9.36475C45.2616 9.36475 45.0825 9.39339 44.8999 9.45068C44.7209 9.50798 44.5257 9.59928 44.3145 9.72461V14H42.3809V5.64258H44.3145V8.63428C44.6582 8.36572 44.9876 8.15983 45.3027 8.0166C45.6214 7.87337 45.9741 7.80176 46.3608 7.80176C47.0125 7.80176 47.521 7.99154 47.8862 8.37109C48.255 8.75065 48.4395 9.3182 48.4395 10.0737V14ZM56.2329 14H54.2993V13.334C53.9412 13.6061 53.6136 13.8138 53.3164 13.957C53.0192 14.0967 52.6647 14.1665 52.2529 14.1665C51.5869 14.1665 51.0731 13.9749 50.7114 13.5918C50.3534 13.2087 50.1743 12.6429 50.1743 11.8945V7.96826H52.1187V10.96C52.1187 11.2643 52.1276 11.5186 52.1455 11.7227C52.167 11.9232 52.2135 12.0897 52.2852 12.2222C52.3532 12.3547 52.4552 12.4513 52.5913 12.5122C52.731 12.5731 52.9243 12.6035 53.1714 12.6035C53.3361 12.6035 53.5187 12.5731 53.7192 12.5122C53.9198 12.4513 54.1131 12.3618 54.2993 12.2437V7.96826H56.2329V14ZM64.3594 10.9009C64.3594 11.8498 64.0962 12.6232 63.5698 13.2212C63.047 13.8192 62.3936 14.1182 61.6094 14.1182C61.2728 14.1182 60.9774 14.0824 60.7231 14.0107C60.4689 13.9391 60.2272 13.8353 59.998 13.6992L59.9175 14H58.0645V5.64258H59.998V8.59668C60.2952 8.36035 60.5978 8.16878 60.9058 8.02197C61.2173 7.87516 61.5754 7.80176 61.98 7.80176C62.7427 7.80176 63.3299 8.07747 63.7417 8.62891C64.1535 9.17676 64.3594 9.93408 64.3594 10.9009ZM62.3667 10.9385C62.3667 10.4014 62.2754 9.98779 62.0928 9.69775C61.9102 9.40771 61.5843 9.2627 61.1152 9.2627C60.9326 9.2627 60.7446 9.29134 60.5513 9.34863C60.3579 9.40234 60.1735 9.48112 59.998 9.58496V12.6143C60.1377 12.6644 60.2702 12.6984 60.3955 12.7163C60.5208 12.7342 60.6712 12.7432 60.8467 12.7432C61.3587 12.7432 61.7401 12.5928 61.9907 12.292C62.2414 11.9912 62.3667 11.54 62.3667 10.9385Z" fill="#171512"/>
</svg>
